<?xml version="1.0" encoding="UTF-8" standalone="no"?><svg xmlns="http://www.w3.org/2000/svg" id="end" width="256" height="256" viewBox="0 0 256 256" preserveAspectRatio="xMidYMid meet" rendering="crispEdges"><rect id="9-7" x="64" y="48" width="8" height="8" shape-rendering="crispEdges" style="fill:#000000;opacity:255;"></rect><rect id="10-7" x="72" y="48" width="8" height="8" shape-rendering="crispEdges" style="fill:#000000;opacity:255;"></rect><rect id="11-7" x="80" y="48" width="8" height="8" shape-rendering="crispEdges" style="fill:#000000;opacity:255;"></rect><rect id="12-7" x="88" y="48" width="8" height="8" shape-rendering="crispEdges" style="fill:#000000;opacity:255;"></rect><rect id="24-7" x="184" y="48" width="8" height="8" shape-rendering="crispEdges" style="fill:#000000;opacity:248;"></rect><rect id="9-8" x="64" y="56" width="8" height="8" shape-rendering="crispEdges" style="fill:#000000;opacity:255;"></rect><rect id="24-8" x="184" y="56" width="8" height="8" shape-rendering="crispEdges" style="fill:#000000;opacity:247;"></rect><rect id="9-9" x="64" y="64" width="8" height="8" shape-rendering="crispEdges" style="fill:#000000;opacity:255;"></rect><rect id="15-9" x="112" y="64" width="8" height="8" shape-rendering="crispEdges" style="fill:#000000;opacity:255;"></rect><rect id="16-9" x="120" y="64" width="8" height="8" shape-rendering="crispEdges" style="fill:#000000;opacity:255;"></rect><rect id="17-9" x="128" y="64" width="8" height="8" shape-rendering="crispEdges" style="fill:#000000;opacity:255;"></rect><rect id="18-9" x="136" y="64" width="8" height="8" shape-rendering="crispEdges" style="fill:#000000;opacity:255;"></rect><rect id="21-9" x="160" y="64" width="8" height="8" shape-rendering="crispEdges" style="fill:#000000;opacity:255;"></rect><rect id="22-9" x="168" y="64" width="8" height="8" shape-rendering="crispEdges" style="fill:#000000;opacity:255;"></rect><rect id="23-9" x="176" y="64" width="8" height="8" shape-rendering="crispEdges" style="fill:#000000;opacity:255;"></rect><rect id="24-9" x="184" y="64" width="8" height="8" shape-rendering="crispEdges" style="fill:#000000;opacity:238;"></rect><rect id="9-10" x="64" y="72" width="8" height="8" shape-rendering="crispEdges" style="fill:#000000;opacity:255;"></rect><rect id="10-10" x="72" y="72" width="8" height="8" shape-rendering="crispEdges" style="fill:#000000;opacity:255;"></rect><rect id="11-10" x="80" y="72" width="8" height="8" shape-rendering="crispEdges" style="fill:#000000;opacity:255;"></rect><rect id="12-10" x="88" y="72" width="8" height="8" shape-rendering="crispEdges" style="fill:#000000;opacity:255;"></rect><rect id="15-10" x="112" y="72" width="8" height="8" shape-rendering="crispEdges" style="fill:#000000;opacity:255;"></rect><rect id="18-10" x="136" y="72" width="8" height="8" shape-rendering="crispEdges" style="fill:#000000;opacity:255;"></rect><rect id="21-10" x="160" y="72" width="8" height="8" shape-rendering="crispEdges" style="fill:#000000;opacity:255;"></rect><rect id="24-10" x="184" y="72" width="8" height="8" shape-rendering="crispEdges" style="fill:#000000;opacity:255;"></rect><rect id="9-11" x="64" y="80" width="8" height="8" shape-rendering="crispEdges" style="fill:#000000;opacity:255;"></rect><rect id="15-11" x="112" y="80" width="8" height="8" shape-rendering="crispEdges" style="fill:#000000;opacity:255;"></rect><rect id="18-11" x="136" y="80" width="8" height="8" shape-rendering="crispEdges" style="fill:#000000;opacity:255;"></rect><rect id="21-11" x="160" y="80" width="8" height="8" shape-rendering="crispEdges" style="fill:#000000;opacity:238;"></rect><rect id="24-11" x="184" y="80" width="8" height="8" shape-rendering="crispEdges" style="fill:#000000;opacity:234;"></rect><rect id="9-12" x="64" y="88" width="8" height="8" shape-rendering="crispEdges" style="fill:#000000;opacity:255;"></rect><rect id="15-12" x="112" y="88" width="8" height="8" shape-rendering="crispEdges" style="fill:#000000;opacity:255;"></rect><rect id="18-12" x="136" y="88" width="8" height="8" shape-rendering="crispEdges" style="fill:#000000;opacity:255;"></rect><rect id="21-12" x="160" y="88" width="8" height="8" shape-rendering="crispEdges" style="fill:#000000;opacity:235;"></rect><rect id="24-12" x="184" y="88" width="8" height="8" shape-rendering="crispEdges" style="fill:#000000;opacity:229;"></rect><rect id="9-13" x="64" y="96" width="8" height="8" shape-rendering="crispEdges" style="fill:#000000;opacity:255;"></rect><rect id="15-13" x="112" y="96" width="8" height="8" shape-rendering="crispEdges" style="fill:#000000;opacity:255;"></rect><rect id="18-13" x="136" y="96" width="8" height="8" shape-rendering="crispEdges" style="fill:#000000;opacity:255;"></rect><rect id="21-13" x="160" y="96" width="8" height="8" shape-rendering="crispEdges" style="fill:#000000;opacity:255;"></rect><rect id="24-13" x="184" y="96" width="8" height="8" shape-rendering="crispEdges" style="fill:#000000;opacity:255;"></rect><rect id="9-14" x="64" y="104" width="8" height="8" shape-rendering="crispEdges" style="fill:#000000;opacity:255;"></rect><rect id="10-14" x="72" y="104" width="8" height="8" shape-rendering="crispEdges" style="fill:#000000;opacity:255;"></rect><rect id="11-14" x="80" y="104" width="8" height="8" shape-rendering="crispEdges" style="fill:#000000;opacity:255;"></rect><rect id="12-14" x="88" y="104" width="8" height="8" shape-rendering="crispEdges" style="fill:#000000;opacity:255;"></rect><rect id="15-14" x="112" y="104" width="8" height="8" shape-rendering="crispEdges" style="fill:#000000;opacity:255;"></rect><rect id="18-14" x="136" y="104" width="8" height="8" shape-rendering="crispEdges" style="fill:#000000;opacity:255;"></rect><rect id="21-14" x="160" y="104" width="8" height="8" shape-rendering="crispEdges" style="fill:#000000;opacity:255;"></rect><rect id="22-14" x="168" y="104" width="8" height="8" shape-rendering="crispEdges" style="fill:#000000;opacity:255;"></rect><rect id="23-14" x="176" y="104" width="8" height="8" shape-rendering="crispEdges" style="fill:#000000;opacity:255;"></rect><rect id="24-14" x="184" y="104" width="8" height="8" shape-rendering="crispEdges" style="fill:#000000;opacity:255;"></rect><rect id="15-17" x="112" y="128" width="8" height="8" shape-rendering="crispEdges" style="fill:#d45757;opacity:255;"></rect><rect id="16-17" x="120" y="128" width="8" height="8" shape-rendering="crispEdges" style="fill:#d45757;opacity:255;"></rect><rect id="17-17" x="128" y="128" width="8" height="8" shape-rendering="crispEdges" style="fill:#d45757;opacity:255;"></rect><rect id="18-17" x="136" y="128" width="8" height="8" shape-rendering="crispEdges" style="fill:#d45757;opacity:255;"></rect><rect id="13-18" x="96" y="136" width="8" height="8" shape-rendering="crispEdges" style="fill:#d45757;opacity:255;"></rect><rect id="14-18" x="104" y="136" width="8" height="8" shape-rendering="crispEdges" style="fill:#d45757;opacity:255;"></rect><rect id="19-18" x="144" y="136" width="8" height="8" shape-rendering="crispEdges" style="fill:#d45757;opacity:255;"></rect><rect id="20-18" x="152" y="136" width="8" height="8" shape-rendering="crispEdges" style="fill:#d45757;opacity:255;"></rect><rect id="12-19" x="88" y="144" width="8" height="8" shape-rendering="crispEdges" style="fill:#d45757;opacity:255;"></rect><rect id="13-19" x="96" y="144" width="8" height="8" shape-rendering="crispEdges" style="fill:#d45757;opacity:255;"></rect><rect id="20-19" x="152" y="144" width="8" height="8" shape-rendering="crispEdges" style="fill:#d45757;opacity:255;"></rect><rect id="21-19" x="160" y="144" width="8" height="8" shape-rendering="crispEdges" style="fill:#d45757;opacity:255;"></rect><rect id="12-20" x="88" y="152" width="8" height="8" shape-rendering="crispEdges" style="fill:#d45757;opacity:255;"></rect><rect id="13-20" x="96" y="152" width="8" height="8" shape-rendering="crispEdges" style="fill:#d45757;opacity:255;"></rect><rect id="14-20" x="104" y="152" width="8" height="8" shape-rendering="crispEdges" style="fill:#d45757;opacity:255;"></rect><rect id="21-20" x="160" y="152" width="8" height="8" shape-rendering="crispEdges" style="fill:#d45757;opacity:255;"></rect><rect id="11-21" x="80" y="160" width="8" height="8" shape-rendering="crispEdges" style="fill:#d45757;opacity:255;"></rect><rect id="14-21" x="104" y="160" width="8" height="8" shape-rendering="crispEdges" style="fill:#d45757;opacity:255;"></rect><rect id="15-21" x="112" y="160" width="8" height="8" shape-rendering="crispEdges" style="fill:#d45757;opacity:255;"></rect><rect id="22-21" x="168" y="160" width="8" height="8" shape-rendering="crispEdges" style="fill:#d45757;opacity:255;"></rect><rect id="11-22" x="80" y="168" width="8" height="8" shape-rendering="crispEdges" style="fill:#d45757;opacity:255;"></rect><rect id="15-22" x="112" y="168" width="8" height="8" shape-rendering="crispEdges" style="fill:#d45757;opacity:255;"></rect><rect id="16-22" x="120" y="168" width="8" height="8" shape-rendering="crispEdges" style="fill:#d45757;opacity:255;"></rect><rect id="22-22" x="168" y="168" width="8" height="8" shape-rendering="crispEdges" style="fill:#d45757;opacity:255;"></rect><rect id="11-23" x="80" y="176" width="8" height="8" shape-rendering="crispEdges" style="fill:#d45757;opacity:255;"></rect><rect id="16-23" x="120" y="176" width="8" height="8" shape-rendering="crispEdges" style="fill:#d45757;opacity:255;"></rect><rect id="17-23" x="128" y="176" width="8" height="8" shape-rendering="crispEdges" style="fill:#d45757;opacity:255;"></rect><rect id="22-23" x="168" y="176" width="8" height="8" shape-rendering="crispEdges" style="fill:#d45757;opacity:255;"></rect><rect id="11-24" x="80" y="184" width="8" height="8" shape-rendering="crispEdges" style="fill:#d45757;opacity:255;"></rect><rect id="17-24" x="128" y="184" width="8" height="8" shape-rendering="crispEdges" style="fill:#d45757;opacity:255;"></rect><rect id="18-24" x="136" y="184" width="8" height="8" shape-rendering="crispEdges" style="fill:#d45757;opacity:255;"></rect><rect id="22-24" x="168" y="184" width="8" height="8" shape-rendering="crispEdges" style="fill:#d45757;opacity:255;"></rect><rect id="12-25" x="88" y="192" width="8" height="8" shape-rendering="crispEdges" style="fill:#d45757;opacity:255;"></rect><rect id="18-25" x="136" y="192" width="8" height="8" shape-rendering="crispEdges" style="fill:#d45757;opacity:255;"></rect><rect id="19-25" x="144" y="192" width="8" height="8" shape-rendering="crispEdges" style="fill:#d45757;opacity:255;"></rect><rect id="21-25" x="160" y="192" width="8" height="8" shape-rendering="crispEdges" style="fill:#d45757;opacity:255;"></rect><rect id="12-26" x="88" y="200" width="8" height="8" shape-rendering="crispEdges" style="fill:#d45757;opacity:255;"></rect><rect id="13-26" x="96" y="200" width="8" height="8" shape-rendering="crispEdges" style="fill:#d45757;opacity:255;"></rect><rect id="19-26" x="144" y="200" width="8" height="8" shape-rendering="crispEdges" style="fill:#d45757;opacity:255;"></rect><rect id="20-26" x="152" y="200" width="8" height="8" shape-rendering="crispEdges" style="fill:#d45757;opacity:255;"></rect><rect id="21-26" x="160" y="200" width="8" height="8" shape-rendering="crispEdges" style="fill:#d45757;opacity:255;"></rect><rect id="13-27" x="96" y="208" width="8" height="8" shape-rendering="crispEdges" style="fill:#d45757;opacity:255;"></rect><rect id="14-27" x="104" y="208" width="8" height="8" shape-rendering="crispEdges" style="fill:#d45757;opacity:255;"></rect><rect id="19-27" x="144" y="208" width="8" height="8" shape-rendering="crispEdges" style="fill:#d45757;opacity:255;"></rect><rect id="20-27" x="152" y="208" width="8" height="8" shape-rendering="crispEdges" style="fill:#d45757;opacity:255;"></rect><rect id="15-28" x="112" y="216" width="8" height="8" shape-rendering="crispEdges" style="fill:#d45757;opacity:255;"></rect><rect id="16-28" x="120" y="216" width="8" height="8" shape-rendering="crispEdges" style="fill:#d45757;opacity:255;"></rect><rect id="17-28" x="128" y="216" width="8" height="8" shape-rendering="crispEdges" style="fill:#d45757;opacity:255;"></rect><rect id="18-28" x="136" y="216" width="8" height="8" shape-rendering="crispEdges" style="fill:#d45757;opacity:255;"></rect></svg>