<?xml version="1.0" encoding="UTF-8" standalone="no"?><svg xmlns="http://www.w3.org/2000/svg" id="pause" width="256" height="256" viewBox="0 0 256 256" preserveAspectRatio="xMidYMid meet" rendering="crispEdges"><rect id="3-6" x="16" y="40" width="8" height="8" shape-rendering="crispEdges" style="fill:#000000;opacity:255;"></rect><rect id="4-6" x="24" y="40" width="8" height="8" shape-rendering="crispEdges" style="fill:#000000;opacity:255;"></rect><rect id="5-6" x="32" y="40" width="8" height="8" shape-rendering="crispEdges" style="fill:#000000;opacity:242;"></rect><rect id="6-6" x="40" y="40" width="8" height="8" shape-rendering="crispEdges" style="fill:#000000;opacity:255;"></rect><rect id="3-7" x="16" y="48" width="8" height="8" shape-rendering="crispEdges" style="fill:#000000;opacity:255;"></rect><rect id="6-7" x="40" y="48" width="8" height="8" shape-rendering="crispEdges" style="fill:#000000;opacity:253;"></rect><rect id="3-8" x="16" y="56" width="8" height="8" shape-rendering="crispEdges" style="fill:#000000;opacity:255;"></rect><rect id="6-8" x="40" y="56" width="8" height="8" shape-rendering="crispEdges" style="fill:#000000;opacity:223;"></rect><rect id="9-8" x="64" y="56" width="8" height="8" shape-rendering="crispEdges" style="fill:#000000;opacity:255;"></rect><rect id="10-8" x="72" y="56" width="8" height="8" shape-rendering="crispEdges" style="fill:#000000;opacity:255;"></rect><rect id="11-8" x="80" y="56" width="8" height="8" shape-rendering="crispEdges" style="fill:#000000;opacity:255;"></rect><rect id="12-8" x="88" y="56" width="8" height="8" shape-rendering="crispEdges" style="fill:#000000;opacity:255;"></rect><rect id="15-8" x="112" y="56" width="8" height="8" shape-rendering="crispEdges" style="fill:#000000;opacity:244;"></rect><rect id="18-8" x="136" y="56" width="8" height="8" shape-rendering="crispEdges" style="fill:#000000;opacity:255;"></rect><rect id="21-8" x="160" y="56" width="8" height="8" shape-rendering="crispEdges" style="fill:#000000;opacity:255;"></rect><rect id="22-8" x="168" y="56" width="8" height="8" shape-rendering="crispEdges" style="fill:#000000;opacity:255;"></rect><rect id="23-8" x="176" y="56" width="8" height="8" shape-rendering="crispEdges" style="fill:#000000;opacity:255;"></rect><rect id="24-8" x="184" y="56" width="8" height="8" shape-rendering="crispEdges" style="fill:#000000;opacity:255;"></rect><rect id="27-8" x="208" y="56" width="8" height="8" shape-rendering="crispEdges" style="fill:#000000;opacity:255;"></rect><rect id="28-8" x="216" y="56" width="8" height="8" shape-rendering="crispEdges" style="fill:#000000;opacity:255;"></rect><rect id="29-8" x="224" y="56" width="8" height="8" shape-rendering="crispEdges" style="fill:#000000;opacity:255;"></rect><rect id="30-8" x="232" y="56" width="8" height="8" shape-rendering="crispEdges" style="fill:#000000;opacity:255;"></rect><rect id="3-9" x="16" y="64" width="8" height="8" shape-rendering="crispEdges" style="fill:#000000;opacity:255;"></rect><rect id="6-9" x="40" y="64" width="8" height="8" shape-rendering="crispEdges" style="fill:#000000;opacity:250;"></rect><rect id="12-9" x="88" y="64" width="8" height="8" shape-rendering="crispEdges" style="fill:#000000;opacity:255;"></rect><rect id="15-9" x="112" y="64" width="8" height="8" shape-rendering="crispEdges" style="fill:#000000;opacity:244;"></rect><rect id="18-9" x="136" y="64" width="8" height="8" shape-rendering="crispEdges" style="fill:#000000;opacity:255;"></rect><rect id="21-9" x="160" y="64" width="8" height="8" shape-rendering="crispEdges" style="fill:#000000;opacity:255;"></rect><rect id="27-9" x="208" y="64" width="8" height="8" shape-rendering="crispEdges" style="fill:#000000;opacity:254;"></rect><rect id="30-9" x="232" y="64" width="8" height="8" shape-rendering="crispEdges" style="fill:#000000;opacity:242;"></rect><rect id="3-10" x="16" y="72" width="8" height="8" shape-rendering="crispEdges" style="fill:#000000;opacity:255;"></rect><rect id="4-10" x="24" y="72" width="8" height="8" shape-rendering="crispEdges" style="fill:#000000;opacity:255;"></rect><rect id="5-10" x="32" y="72" width="8" height="8" shape-rendering="crispEdges" style="fill:#000000;opacity:255;"></rect><rect id="6-10" x="40" y="72" width="8" height="8" shape-rendering="crispEdges" style="fill:#000000;opacity:255;"></rect><rect id="9-10" x="64" y="72" width="8" height="8" shape-rendering="crispEdges" style="fill:#000000;opacity:255;"></rect><rect id="10-10" x="72" y="72" width="8" height="8" shape-rendering="crispEdges" style="fill:#000000;opacity:251;"></rect><rect id="11-10" x="80" y="72" width="8" height="8" shape-rendering="crispEdges" style="fill:#000000;opacity:255;"></rect><rect id="12-10" x="88" y="72" width="8" height="8" shape-rendering="crispEdges" style="fill:#000000;opacity:255;"></rect><rect id="15-10" x="112" y="72" width="8" height="8" shape-rendering="crispEdges" style="fill:#000000;opacity:244;"></rect><rect id="18-10" x="136" y="72" width="8" height="8" shape-rendering="crispEdges" style="fill:#000000;opacity:255;"></rect><rect id="21-10" x="160" y="72" width="8" height="8" shape-rendering="crispEdges" style="fill:#000000;opacity:255;"></rect><rect id="27-10" x="208" y="72" width="8" height="8" shape-rendering="crispEdges" style="fill:#000000;opacity:255;"></rect><rect id="28-10" x="216" y="72" width="8" height="8" shape-rendering="crispEdges" style="fill:#000000;opacity:255;"></rect><rect id="29-10" x="224" y="72" width="8" height="8" shape-rendering="crispEdges" style="fill:#000000;opacity:255;"></rect><rect id="30-10" x="232" y="72" width="8" height="8" shape-rendering="crispEdges" style="fill:#000000;opacity:255;"></rect><rect id="3-11" x="16" y="80" width="8" height="8" shape-rendering="crispEdges" style="fill:#000000;opacity:255;"></rect><rect id="9-11" x="64" y="80" width="8" height="8" shape-rendering="crispEdges" style="fill:#000000;opacity:255;"></rect><rect id="12-11" x="88" y="80" width="8" height="8" shape-rendering="crispEdges" style="fill:#000000;opacity:255;"></rect><rect id="15-11" x="112" y="80" width="8" height="8" shape-rendering="crispEdges" style="fill:#000000;opacity:246;"></rect><rect id="18-11" x="136" y="80" width="8" height="8" shape-rendering="crispEdges" style="fill:#000000;opacity:255;"></rect><rect id="21-11" x="160" y="80" width="8" height="8" shape-rendering="crispEdges" style="fill:#000000;opacity:255;"></rect><rect id="22-11" x="168" y="80" width="8" height="8" shape-rendering="crispEdges" style="fill:#000000;opacity:255;"></rect><rect id="23-11" x="176" y="80" width="8" height="8" shape-rendering="crispEdges" style="fill:#000000;opacity:255;"></rect><rect id="24-11" x="184" y="80" width="8" height="8" shape-rendering="crispEdges" style="fill:#000000;opacity:255;"></rect><rect id="27-11" x="208" y="80" width="8" height="8" shape-rendering="crispEdges" style="fill:#000000;opacity:252;"></rect><rect id="3-12" x="16" y="88" width="8" height="8" shape-rendering="crispEdges" style="fill:#000000;opacity:255;"></rect><rect id="9-12" x="64" y="88" width="8" height="8" shape-rendering="crispEdges" style="fill:#000000;opacity:255;"></rect><rect id="12-12" x="88" y="88" width="8" height="8" shape-rendering="crispEdges" style="fill:#000000;opacity:255;"></rect><rect id="15-12" x="112" y="88" width="8" height="8" shape-rendering="crispEdges" style="fill:#000000;opacity:255;"></rect><rect id="18-12" x="136" y="88" width="8" height="8" shape-rendering="crispEdges" style="fill:#000000;opacity:255;"></rect><rect id="24-12" x="184" y="88" width="8" height="8" shape-rendering="crispEdges" style="fill:#000000;opacity:255;"></rect><rect id="27-12" x="208" y="88" width="8" height="8" shape-rendering="crispEdges" style="fill:#000000;opacity:251;"></rect><rect id="3-13" x="16" y="96" width="8" height="8" shape-rendering="crispEdges" style="fill:#000000;opacity:255;"></rect><rect id="9-13" x="64" y="96" width="8" height="8" shape-rendering="crispEdges" style="fill:#000000;opacity:255;"></rect><rect id="10-13" x="72" y="96" width="8" height="8" shape-rendering="crispEdges" style="fill:#000000;opacity:255;"></rect><rect id="11-13" x="80" y="96" width="8" height="8" shape-rendering="crispEdges" style="fill:#000000;opacity:255;"></rect><rect id="12-13" x="88" y="96" width="8" height="8" shape-rendering="crispEdges" style="fill:#000000;opacity:255;"></rect><rect id="15-13" x="112" y="96" width="8" height="8" shape-rendering="crispEdges" style="fill:#000000;opacity:255;"></rect><rect id="16-13" x="120" y="96" width="8" height="8" shape-rendering="crispEdges" style="fill:#000000;opacity:255;"></rect><rect id="17-13" x="128" y="96" width="8" height="8" shape-rendering="crispEdges" style="fill:#000000;opacity:255;"></rect><rect id="18-13" x="136" y="96" width="8" height="8" shape-rendering="crispEdges" style="fill:#000000;opacity:255;"></rect><rect id="21-13" x="160" y="96" width="8" height="8" shape-rendering="crispEdges" style="fill:#000000;opacity:255;"></rect><rect id="22-13" x="168" y="96" width="8" height="8" shape-rendering="crispEdges" style="fill:#000000;opacity:251;"></rect><rect id="23-13" x="176" y="96" width="8" height="8" shape-rendering="crispEdges" style="fill:#000000;opacity:236;"></rect><rect id="24-13" x="184" y="96" width="8" height="8" shape-rendering="crispEdges" style="fill:#000000;opacity:255;"></rect><rect id="27-13" x="208" y="96" width="8" height="8" shape-rendering="crispEdges" style="fill:#000000;opacity:255;"></rect><rect id="28-13" x="216" y="96" width="8" height="8" shape-rendering="crispEdges" style="fill:#000000;opacity:255;"></rect><rect id="29-13" x="224" y="96" width="8" height="8" shape-rendering="crispEdges" style="fill:#000000;opacity:255;"></rect><rect id="30-13" x="232" y="96" width="8" height="8" shape-rendering="crispEdges" style="fill:#000000;opacity:255;"></rect><rect id="12-17" x="88" y="128" width="8" height="8" shape-rendering="crispEdges" style="fill:#5e91eb;opacity:255;"></rect><rect id="13-17" x="96" y="128" width="8" height="8" shape-rendering="crispEdges" style="fill:#5e91eb;opacity:255;"></rect><rect id="14-17" x="104" y="128" width="8" height="8" shape-rendering="crispEdges" style="fill:#5e91eb;opacity:255;"></rect><rect id="15-17" x="112" y="128" width="8" height="8" shape-rendering="crispEdges" style="fill:#5e91eb;opacity:255;"></rect><rect id="18-17" x="136" y="128" width="8" height="8" shape-rendering="crispEdges" style="fill:#5e91eb;opacity:255;"></rect><rect id="19-17" x="144" y="128" width="8" height="8" shape-rendering="crispEdges" style="fill:#5e91eb;opacity:255;"></rect><rect id="20-17" x="152" y="128" width="8" height="8" shape-rendering="crispEdges" style="fill:#5e91eb;opacity:255;"></rect><rect id="21-17" x="160" y="128" width="8" height="8" shape-rendering="crispEdges" style="fill:#5e91eb;opacity:255;"></rect><rect id="12-18" x="88" y="136" width="8" height="8" shape-rendering="crispEdges" style="fill:#5e91eb;opacity:255;"></rect><rect id="13-18" x="96" y="136" width="8" height="8" shape-rendering="crispEdges" style="fill:#a4bdeb;opacity:255;"></rect><rect id="14-18" x="104" y="136" width="8" height="8" shape-rendering="crispEdges" style="fill:#a4bdeb;opacity:255;"></rect><rect id="15-18" x="112" y="136" width="8" height="8" shape-rendering="crispEdges" style="fill:#5e91eb;opacity:255;"></rect><rect id="18-18" x="136" y="136" width="8" height="8" shape-rendering="crispEdges" style="fill:#5e91eb;opacity:255;"></rect><rect id="19-18" x="144" y="136" width="8" height="8" shape-rendering="crispEdges" style="fill:#a4bdeb;opacity:255;"></rect><rect id="20-18" x="152" y="136" width="8" height="8" shape-rendering="crispEdges" style="fill:#a4bdeb;opacity:255;"></rect><rect id="21-18" x="160" y="136" width="8" height="8" shape-rendering="crispEdges" style="fill:#5e91eb;opacity:255;"></rect><rect id="12-19" x="88" y="144" width="8" height="8" shape-rendering="crispEdges" style="fill:#5e91eb;opacity:255;"></rect><rect id="13-19" x="96" y="144" width="8" height="8" shape-rendering="crispEdges" style="fill:#a4bdeb;opacity:255;"></rect><rect id="14-19" x="104" y="144" width="8" height="8" shape-rendering="crispEdges" style="fill:#a4bdeb;opacity:255;"></rect><rect id="15-19" x="112" y="144" width="8" height="8" shape-rendering="crispEdges" style="fill:#5e91eb;opacity:255;"></rect><rect id="18-19" x="136" y="144" width="8" height="8" shape-rendering="crispEdges" style="fill:#5e91eb;opacity:255;"></rect><rect id="19-19" x="144" y="144" width="8" height="8" shape-rendering="crispEdges" style="fill:#a4bdeb;opacity:255;"></rect><rect id="20-19" x="152" y="144" width="8" height="8" shape-rendering="crispEdges" style="fill:#a4bdeb;opacity:255;"></rect><rect id="21-19" x="160" y="144" width="8" height="8" shape-rendering="crispEdges" style="fill:#5e91eb;opacity:255;"></rect><rect id="12-20" x="88" y="152" width="8" height="8" shape-rendering="crispEdges" style="fill:#5e91eb;opacity:255;"></rect><rect id="13-20" x="96" y="152" width="8" height="8" shape-rendering="crispEdges" style="fill:#a4bdeb;opacity:255;"></rect><rect id="14-20" x="104" y="152" width="8" height="8" shape-rendering="crispEdges" style="fill:#a4bdeb;opacity:255;"></rect><rect id="15-20" x="112" y="152" width="8" height="8" shape-rendering="crispEdges" style="fill:#5e91eb;opacity:255;"></rect><rect id="18-20" x="136" y="152" width="8" height="8" shape-rendering="crispEdges" style="fill:#5e91eb;opacity:255;"></rect><rect id="19-20" x="144" y="152" width="8" height="8" shape-rendering="crispEdges" style="fill:#a4bdeb;opacity:255;"></rect><rect id="20-20" x="152" y="152" width="8" height="8" shape-rendering="crispEdges" style="fill:#a4bdeb;opacity:255;"></rect><rect id="21-20" x="160" y="152" width="8" height="8" shape-rendering="crispEdges" style="fill:#5e91eb;opacity:255;"></rect><rect id="12-21" x="88" y="160" width="8" height="8" shape-rendering="crispEdges" style="fill:#5e91eb;opacity:255;"></rect><rect id="13-21" x="96" y="160" width="8" height="8" shape-rendering="crispEdges" style="fill:#a4bdeb;opacity:255;"></rect><rect id="14-21" x="104" y="160" width="8" height="8" shape-rendering="crispEdges" style="fill:#a4bdeb;opacity:255;"></rect><rect id="15-21" x="112" y="160" width="8" height="8" shape-rendering="crispEdges" style="fill:#5e91eb;opacity:255;"></rect><rect id="18-21" x="136" y="160" width="8" height="8" shape-rendering="crispEdges" style="fill:#5e91eb;opacity:255;"></rect><rect id="19-21" x="144" y="160" width="8" height="8" shape-rendering="crispEdges" style="fill:#a4bdeb;opacity:255;"></rect><rect id="20-21" x="152" y="160" width="8" height="8" shape-rendering="crispEdges" style="fill:#a4bdeb;opacity:255;"></rect><rect id="21-21" x="160" y="160" width="8" height="8" shape-rendering="crispEdges" style="fill:#5e91eb;opacity:255;"></rect><rect id="12-22" x="88" y="168" width="8" height="8" shape-rendering="crispEdges" style="fill:#5e91eb;opacity:255;"></rect><rect id="13-22" x="96" y="168" width="8" height="8" shape-rendering="crispEdges" style="fill:#a4bdeb;opacity:255;"></rect><rect id="14-22" x="104" y="168" width="8" height="8" shape-rendering="crispEdges" style="fill:#a4bdeb;opacity:255;"></rect><rect id="15-22" x="112" y="168" width="8" height="8" shape-rendering="crispEdges" style="fill:#5e91eb;opacity:255;"></rect><rect id="18-22" x="136" y="168" width="8" height="8" shape-rendering="crispEdges" style="fill:#5e91eb;opacity:255;"></rect><rect id="19-22" x="144" y="168" width="8" height="8" shape-rendering="crispEdges" style="fill:#a4bdeb;opacity:255;"></rect><rect id="20-22" x="152" y="168" width="8" height="8" shape-rendering="crispEdges" style="fill:#a4bdeb;opacity:255;"></rect><rect id="21-22" x="160" y="168" width="8" height="8" shape-rendering="crispEdges" style="fill:#5e91eb;opacity:255;"></rect><rect id="12-23" x="88" y="176" width="8" height="8" shape-rendering="crispEdges" style="fill:#5e91eb;opacity:255;"></rect><rect id="13-23" x="96" y="176" width="8" height="8" shape-rendering="crispEdges" style="fill:#a4bdeb;opacity:255;"></rect><rect id="14-23" x="104" y="176" width="8" height="8" shape-rendering="crispEdges" style="fill:#a4bdeb;opacity:255;"></rect><rect id="15-23" x="112" y="176" width="8" height="8" shape-rendering="crispEdges" style="fill:#5e91eb;opacity:255;"></rect><rect id="18-23" x="136" y="176" width="8" height="8" shape-rendering="crispEdges" style="fill:#5e91eb;opacity:255;"></rect><rect id="19-23" x="144" y="176" width="8" height="8" shape-rendering="crispEdges" style="fill:#a4bdeb;opacity:255;"></rect><rect id="20-23" x="152" y="176" width="8" height="8" shape-rendering="crispEdges" style="fill:#a4bdeb;opacity:255;"></rect><rect id="21-23" x="160" y="176" width="8" height="8" shape-rendering="crispEdges" style="fill:#5e91eb;opacity:255;"></rect><rect id="12-24" x="88" y="184" width="8" height="8" shape-rendering="crispEdges" style="fill:#5e91eb;opacity:255;"></rect><rect id="13-24" x="96" y="184" width="8" height="8" shape-rendering="crispEdges" style="fill:#a4bdeb;opacity:255;"></rect><rect id="14-24" x="104" y="184" width="8" height="8" shape-rendering="crispEdges" style="fill:#a4bdeb;opacity:255;"></rect><rect id="15-24" x="112" y="184" width="8" height="8" shape-rendering="crispEdges" style="fill:#5e91eb;opacity:255;"></rect><rect id="18-24" x="136" y="184" width="8" height="8" shape-rendering="crispEdges" style="fill:#5e91eb;opacity:255;"></rect><rect id="19-24" x="144" y="184" width="8" height="8" shape-rendering="crispEdges" style="fill:#a4bdeb;opacity:255;"></rect><rect id="20-24" x="152" y="184" width="8" height="8" shape-rendering="crispEdges" style="fill:#a4bdeb;opacity:255;"></rect><rect id="21-24" x="160" y="184" width="8" height="8" shape-rendering="crispEdges" style="fill:#5e91eb;opacity:255;"></rect><rect id="12-25" x="88" y="192" width="8" height="8" shape-rendering="crispEdges" style="fill:#5e91eb;opacity:255;"></rect><rect id="13-25" x="96" y="192" width="8" height="8" shape-rendering="crispEdges" style="fill:#a4bdeb;opacity:255;"></rect><rect id="14-25" x="104" y="192" width="8" height="8" shape-rendering="crispEdges" style="fill:#a4bdeb;opacity:255;"></rect><rect id="15-25" x="112" y="192" width="8" height="8" shape-rendering="crispEdges" style="fill:#5e91eb;opacity:255;"></rect><rect id="18-25" x="136" y="192" width="8" height="8" shape-rendering="crispEdges" style="fill:#5e91eb;opacity:255;"></rect><rect id="19-25" x="144" y="192" width="8" height="8" shape-rendering="crispEdges" style="fill:#a4bdeb;opacity:255;"></rect><rect id="20-25" x="152" y="192" width="8" height="8" shape-rendering="crispEdges" style="fill:#a4bdeb;opacity:255;"></rect><rect id="21-25" x="160" y="192" width="8" height="8" shape-rendering="crispEdges" style="fill:#5e91eb;opacity:255;"></rect><rect id="12-26" x="88" y="200" width="8" height="8" shape-rendering="crispEdges" style="fill:#5e91eb;opacity:255;"></rect><rect id="13-26" x="96" y="200" width="8" height="8" shape-rendering="crispEdges" style="fill:#a4bdeb;opacity:255;"></rect><rect id="14-26" x="104" y="200" width="8" height="8" shape-rendering="crispEdges" style="fill:#a4bdeb;opacity:255;"></rect><rect id="15-26" x="112" y="200" width="8" height="8" shape-rendering="crispEdges" style="fill:#5e91eb;opacity:255;"></rect><rect id="18-26" x="136" y="200" width="8" height="8" shape-rendering="crispEdges" style="fill:#5e91eb;opacity:255;"></rect><rect id="19-26" x="144" y="200" width="8" height="8" shape-rendering="crispEdges" style="fill:#a4bdeb;opacity:255;"></rect><rect id="20-26" x="152" y="200" width="8" height="8" shape-rendering="crispEdges" style="fill:#a4bdeb;opacity:255;"></rect><rect id="21-26" x="160" y="200" width="8" height="8" shape-rendering="crispEdges" style="fill:#5e91eb;opacity:255;"></rect><rect id="12-27" x="88" y="208" width="8" height="8" shape-rendering="crispEdges" style="fill:#5e91eb;opacity:255;"></rect><rect id="13-27" x="96" y="208" width="8" height="8" shape-rendering="crispEdges" style="fill:#a4bdeb;opacity:255;"></rect><rect id="14-27" x="104" y="208" width="8" height="8" shape-rendering="crispEdges" style="fill:#a4bdeb;opacity:255;"></rect><rect id="15-27" x="112" y="208" width="8" height="8" shape-rendering="crispEdges" style="fill:#5e91eb;opacity:255;"></rect><rect id="18-27" x="136" y="208" width="8" height="8" shape-rendering="crispEdges" style="fill:#5e91eb;opacity:255;"></rect><rect id="19-27" x="144" y="208" width="8" height="8" shape-rendering="crispEdges" style="fill:#a4bdeb;opacity:255;"></rect><rect id="20-27" x="152" y="208" width="8" height="8" shape-rendering="crispEdges" style="fill:#a4bdeb;opacity:255;"></rect><rect id="21-27" x="160" y="208" width="8" height="8" shape-rendering="crispEdges" style="fill:#5e91eb;opacity:255;"></rect><rect id="12-28" x="88" y="216" width="8" height="8" shape-rendering="crispEdges" style="fill:#5e91eb;opacity:255;"></rect><rect id="13-28" x="96" y="216" width="8" height="8" shape-rendering="crispEdges" style="fill:#a4bdeb;opacity:255;"></rect><rect id="14-28" x="104" y="216" width="8" height="8" shape-rendering="crispEdges" style="fill:#a4bdeb;opacity:255;"></rect><rect id="15-28" x="112" y="216" width="8" height="8" shape-rendering="crispEdges" style="fill:#5e91eb;opacity:255;"></rect><rect id="18-28" x="136" y="216" width="8" height="8" shape-rendering="crispEdges" style="fill:#5e91eb;opacity:255;"></rect><rect id="19-28" x="144" y="216" width="8" height="8" shape-rendering="crispEdges" style="fill:#a4bdeb;opacity:255;"></rect><rect id="20-28" x="152" y="216" width="8" height="8" shape-rendering="crispEdges" style="fill:#a4bdeb;opacity:255;"></rect><rect id="21-28" x="160" y="216" width="8" height="8" shape-rendering="crispEdges" style="fill:#5e91eb;opacity:255;"></rect><rect id="12-29" x="88" y="224" width="8" height="8" shape-rendering="crispEdges" style="fill:#5e91eb;opacity:255;"></rect><rect id="13-29" x="96" y="224" width="8" height="8" shape-rendering="crispEdges" style="fill:#5e91eb;opacity:255;"></rect><rect id="14-29" x="104" y="224" width="8" height="8" shape-rendering="crispEdges" style="fill:#5e91eb;opacity:255;"></rect><rect id="15-29" x="112" y="224" width="8" height="8" shape-rendering="crispEdges" style="fill:#5e91eb;opacity:255;"></rect><rect id="18-29" x="136" y="224" width="8" height="8" shape-rendering="crispEdges" style="fill:#5e91eb;opacity:255;"></rect><rect id="19-29" x="144" y="224" width="8" height="8" shape-rendering="crispEdges" style="fill:#5e91eb;opacity:255;"></rect><rect id="20-29" x="152" y="224" width="8" height="8" shape-rendering="crispEdges" style="fill:#5e91eb;opacity:255;"></rect><rect id="21-29" x="160" y="224" width="8" height="8" shape-rendering="crispEdges" style="fill:#5e91eb;opacity:255;"></rect></svg>