<?xml version="1.0" encoding="UTF-8" standalone="no"?><svg xmlns="http://www.w3.org/2000/svg" id="play" width="256" height="256" viewBox="0 0 256 256" preserveAspectRatio="xMidYMid meet" rendering="crispEdges"><rect id="9-7" x="64" y="48" width="8" height="8" shape-rendering="crispEdges" style="fill:#000000;opacity:255;"></rect><rect id="10-7" x="72" y="48" width="8" height="8" shape-rendering="crispEdges" style="fill:#000000;opacity:254;"></rect><rect id="11-7" x="80" y="48" width="8" height="8" shape-rendering="crispEdges" style="fill:#000000;opacity:255;"></rect><rect id="9-8" x="64" y="56" width="8" height="8" shape-rendering="crispEdges" style="fill:#000000;opacity:255;"></rect><rect id="12-8" x="88" y="56" width="8" height="8" shape-rendering="crispEdges" style="fill:#000000;opacity:251;"></rect><rect id="9-9" x="64" y="64" width="8" height="8" shape-rendering="crispEdges" style="fill:#000000;opacity:255;"></rect><rect id="12-9" x="88" y="64" width="8" height="8" shape-rendering="crispEdges" style="fill:#000000;opacity:255;"></rect><rect id="15-9" x="112" y="64" width="8" height="8" shape-rendering="crispEdges" style="fill:#000000;opacity:244;"></rect><rect id="18-9" x="136" y="64" width="8" height="8" shape-rendering="crispEdges" style="fill:#000000;opacity:255;"></rect><rect id="21-9" x="160" y="64" width="8" height="8" shape-rendering="crispEdges" style="fill:#000000;opacity:255;"></rect><rect id="22-9" x="168" y="64" width="8" height="8" shape-rendering="crispEdges" style="fill:#000000;opacity:255;"></rect><rect id="23-9" x="176" y="64" width="8" height="8" shape-rendering="crispEdges" style="fill:#000000;opacity:242;"></rect><rect id="24-9" x="184" y="64" width="8" height="8" shape-rendering="crispEdges" style="fill:#000000;opacity:255;"></rect><rect id="9-10" x="64" y="72" width="8" height="8" shape-rendering="crispEdges" style="fill:#000000;opacity:255;"></rect><rect id="12-10" x="88" y="72" width="8" height="8" shape-rendering="crispEdges" style="fill:#000000;opacity:255;"></rect><rect id="15-10" x="112" y="72" width="8" height="8" shape-rendering="crispEdges" style="fill:#000000;opacity:244;"></rect><rect id="18-10" x="136" y="72" width="8" height="8" shape-rendering="crispEdges" style="fill:#000000;opacity:255;"></rect><rect id="21-10" x="160" y="72" width="8" height="8" shape-rendering="crispEdges" style="fill:#000000;opacity:255;"></rect><rect id="24-10" x="184" y="72" width="8" height="8" shape-rendering="crispEdges" style="fill:#000000;opacity:255;"></rect><rect id="9-11" x="64" y="80" width="8" height="8" shape-rendering="crispEdges" style="fill:#000000;opacity:255;"></rect><rect id="10-11" x="72" y="80" width="8" height="8" shape-rendering="crispEdges" style="fill:#000000;opacity:255;"></rect><rect id="11-11" x="80" y="80" width="8" height="8" shape-rendering="crispEdges" style="fill:#000000;opacity:255;"></rect><rect id="15-11" x="112" y="80" width="8" height="8" shape-rendering="crispEdges" style="fill:#000000;opacity:244;"></rect><rect id="18-11" x="136" y="80" width="8" height="8" shape-rendering="crispEdges" style="fill:#000000;opacity:255;"></rect><rect id="21-11" x="160" y="80" width="8" height="8" shape-rendering="crispEdges" style="fill:#000000;opacity:255;"></rect><rect id="24-11" x="184" y="80" width="8" height="8" shape-rendering="crispEdges" style="fill:#000000;opacity:247;"></rect><rect id="9-12" x="64" y="88" width="8" height="8" shape-rendering="crispEdges" style="fill:#000000;opacity:255;"></rect><rect id="11-12" x="80" y="88" width="8" height="8" shape-rendering="crispEdges" style="fill:#000000;opacity:243;"></rect><rect id="15-12" x="112" y="88" width="8" height="8" shape-rendering="crispEdges" style="fill:#000000;opacity:246;"></rect><rect id="18-12" x="136" y="88" width="8" height="8" shape-rendering="crispEdges" style="fill:#000000;opacity:255;"></rect><rect id="21-12" x="160" y="88" width="8" height="8" shape-rendering="crispEdges" style="fill:#000000;opacity:255;"></rect><rect id="24-12" x="184" y="88" width="8" height="8" shape-rendering="crispEdges" style="fill:#000000;opacity:244;"></rect><rect id="9-13" x="64" y="96" width="8" height="8" shape-rendering="crispEdges" style="fill:#000000;opacity:255;"></rect><rect id="12-13" x="88" y="96" width="8" height="8" shape-rendering="crispEdges" style="fill:#000000;opacity:238;"></rect><rect id="15-13" x="112" y="96" width="8" height="8" shape-rendering="crispEdges" style="fill:#000000;opacity:255;"></rect><rect id="18-13" x="136" y="96" width="8" height="8" shape-rendering="crispEdges" style="fill:#000000;opacity:255;"></rect><rect id="21-13" x="160" y="96" width="8" height="8" shape-rendering="crispEdges" style="fill:#000000;opacity:255;"></rect><rect id="24-13" x="184" y="96" width="8" height="8" shape-rendering="crispEdges" style="fill:#000000;opacity:244;"></rect><rect id="9-14" x="64" y="104" width="8" height="8" shape-rendering="crispEdges" style="fill:#000000;opacity:255;"></rect><rect id="12-14" x="88" y="104" width="8" height="8" shape-rendering="crispEdges" style="fill:#000000;opacity:232;"></rect><rect id="15-14" x="112" y="104" width="8" height="8" shape-rendering="crispEdges" style="fill:#000000;opacity:255;"></rect><rect id="16-14" x="120" y="104" width="8" height="8" shape-rendering="crispEdges" style="fill:#000000;opacity:255;"></rect><rect id="17-14" x="128" y="104" width="8" height="8" shape-rendering="crispEdges" style="fill:#000000;opacity:255;"></rect><rect id="18-14" x="136" y="104" width="8" height="8" shape-rendering="crispEdges" style="fill:#000000;opacity:255;"></rect><rect id="21-14" x="160" y="104" width="8" height="8" shape-rendering="crispEdges" style="fill:#000000;opacity:255;"></rect><rect id="24-14" x="184" y="104" width="8" height="8" shape-rendering="crispEdges" style="fill:#000000;opacity:244;"></rect><rect id="11-16" x="80" y="120" width="8" height="8" shape-rendering="crispEdges" style="fill:#638f59;opacity:255;"></rect><rect id="12-16" x="88" y="120" width="8" height="8" shape-rendering="crispEdges" style="fill:#638f59;opacity:255;"></rect><rect id="11-17" x="80" y="128" width="8" height="8" shape-rendering="crispEdges" style="fill:#638f59;opacity:255;"></rect><rect id="12-17" x="88" y="128" width="8" height="8" shape-rendering="crispEdges" style="fill:#638f59;opacity:255;"></rect><rect id="13-17" x="96" y="128" width="8" height="8" shape-rendering="crispEdges" style="fill:#638f59;opacity:255;"></rect><rect id="11-18" x="80" y="136" width="8" height="8" shape-rendering="crispEdges" style="fill:#638f59;opacity:255;"></rect><rect id="12-18" x="88" y="136" width="8" height="8" shape-rendering="crispEdges" style="fill:#99fb83;opacity:255;"></rect><rect id="13-18" x="96" y="136" width="8" height="8" shape-rendering="crispEdges" style="fill:#99fb83;opacity:255;"></rect><rect id="14-18" x="104" y="136" width="8" height="8" shape-rendering="crispEdges" style="fill:#638f59;opacity:255;"></rect><rect id="15-18" x="112" y="136" width="8" height="8" shape-rendering="crispEdges" style="fill:#638f59;opacity:255;"></rect><rect id="11-19" x="80" y="144" width="8" height="8" shape-rendering="crispEdges" style="fill:#638f59;opacity:255;"></rect><rect id="12-19" x="88" y="144" width="8" height="8" shape-rendering="crispEdges" style="fill:#99fb83;opacity:255;"></rect><rect id="13-19" x="96" y="144" width="8" height="8" shape-rendering="crispEdges" style="fill:#99fb83;opacity:255;"></rect><rect id="14-19" x="104" y="144" width="8" height="8" shape-rendering="crispEdges" style="fill:#99fb83;opacity:255;"></rect><rect id="15-19" x="112" y="144" width="8" height="8" shape-rendering="crispEdges" style="fill:#99fb83;opacity:255;"></rect><rect id="16-19" x="120" y="144" width="8" height="8" shape-rendering="crispEdges" style="fill:#638f59;opacity:255;"></rect><rect id="17-19" x="128" y="144" width="8" height="8" shape-rendering="crispEdges" style="fill:#638f59;opacity:255;"></rect><rect id="11-20" x="80" y="152" width="8" height="8" shape-rendering="crispEdges" style="fill:#638f59;opacity:255;"></rect><rect id="12-20" x="88" y="152" width="8" height="8" shape-rendering="crispEdges" style="fill:#99fb83;opacity:255;"></rect><rect id="13-20" x="96" y="152" width="8" height="8" shape-rendering="crispEdges" style="fill:#99fb83;opacity:255;"></rect><rect id="14-20" x="104" y="152" width="8" height="8" shape-rendering="crispEdges" style="fill:#99fb83;opacity:255;"></rect><rect id="15-20" x="112" y="152" width="8" height="8" shape-rendering="crispEdges" style="fill:#99fb83;opacity:255;"></rect><rect id="16-20" x="120" y="152" width="8" height="8" shape-rendering="crispEdges" style="fill:#99fb83;opacity:255;"></rect><rect id="17-20" x="128" y="152" width="8" height="8" shape-rendering="crispEdges" style="fill:#99fb83;opacity:255;"></rect><rect id="18-20" x="136" y="152" width="8" height="8" shape-rendering="crispEdges" style="fill:#638f59;opacity:255;"></rect><rect id="19-20" x="144" y="152" width="8" height="8" shape-rendering="crispEdges" style="fill:#638f59;opacity:255;"></rect><rect id="11-21" x="80" y="160" width="8" height="8" shape-rendering="crispEdges" style="fill:#638f59;opacity:255;"></rect><rect id="12-21" x="88" y="160" width="8" height="8" shape-rendering="crispEdges" style="fill:#99fb83;opacity:255;"></rect><rect id="13-21" x="96" y="160" width="8" height="8" shape-rendering="crispEdges" style="fill:#99fb83;opacity:255;"></rect><rect id="14-21" x="104" y="160" width="8" height="8" shape-rendering="crispEdges" style="fill:#99fb83;opacity:255;"></rect><rect id="15-21" x="112" y="160" width="8" height="8" shape-rendering="crispEdges" style="fill:#99fb83;opacity:255;"></rect><rect id="16-21" x="120" y="160" width="8" height="8" shape-rendering="crispEdges" style="fill:#99fb83;opacity:255;"></rect><rect id="17-21" x="128" y="160" width="8" height="8" shape-rendering="crispEdges" style="fill:#99fb83;opacity:255;"></rect><rect id="18-21" x="136" y="160" width="8" height="8" shape-rendering="crispEdges" style="fill:#99fb83;opacity:255;"></rect><rect id="19-21" x="144" y="160" width="8" height="8" shape-rendering="crispEdges" style="fill:#99fb83;opacity:255;"></rect><rect id="20-21" x="152" y="160" width="8" height="8" shape-rendering="crispEdges" style="fill:#638f59;opacity:255;"></rect><rect id="21-21" x="160" y="160" width="8" height="8" shape-rendering="crispEdges" style="fill:#638f59;opacity:255;"></rect><rect id="11-22" x="80" y="168" width="8" height="8" shape-rendering="crispEdges" style="fill:#638f59;opacity:255;"></rect><rect id="12-22" x="88" y="168" width="8" height="8" shape-rendering="crispEdges" style="fill:#99fb83;opacity:255;"></rect><rect id="13-22" x="96" y="168" width="8" height="8" shape-rendering="crispEdges" style="fill:#99fb83;opacity:255;"></rect><rect id="14-22" x="104" y="168" width="8" height="8" shape-rendering="crispEdges" style="fill:#99fb83;opacity:255;"></rect><rect id="15-22" x="112" y="168" width="8" height="8" shape-rendering="crispEdges" style="fill:#99fb83;opacity:255;"></rect><rect id="16-22" x="120" y="168" width="8" height="8" shape-rendering="crispEdges" style="fill:#99fb83;opacity:255;"></rect><rect id="17-22" x="128" y="168" width="8" height="8" shape-rendering="crispEdges" style="fill:#99fb83;opacity:255;"></rect><rect id="18-22" x="136" y="168" width="8" height="8" shape-rendering="crispEdges" style="fill:#99fb83;opacity:255;"></rect><rect id="19-22" x="144" y="168" width="8" height="8" shape-rendering="crispEdges" style="fill:#99fb83;opacity:255;"></rect><rect id="20-22" x="152" y="168" width="8" height="8" shape-rendering="crispEdges" style="fill:#99fb83;opacity:255;"></rect><rect id="21-22" x="160" y="168" width="8" height="8" shape-rendering="crispEdges" style="fill:#99fb83;opacity:255;"></rect><rect id="22-22" x="168" y="168" width="8" height="8" shape-rendering="crispEdges" style="fill:#638f59;opacity:255;"></rect><rect id="11-23" x="80" y="176" width="8" height="8" shape-rendering="crispEdges" style="fill:#638f59;opacity:255;"></rect><rect id="12-23" x="88" y="176" width="8" height="8" shape-rendering="crispEdges" style="fill:#99fb83;opacity:255;"></rect><rect id="13-23" x="96" y="176" width="8" height="8" shape-rendering="crispEdges" style="fill:#99fb83;opacity:255;"></rect><rect id="14-23" x="104" y="176" width="8" height="8" shape-rendering="crispEdges" style="fill:#99fb83;opacity:255;"></rect><rect id="15-23" x="112" y="176" width="8" height="8" shape-rendering="crispEdges" style="fill:#99fb83;opacity:255;"></rect><rect id="16-23" x="120" y="176" width="8" height="8" shape-rendering="crispEdges" style="fill:#99fb83;opacity:255;"></rect><rect id="17-23" x="128" y="176" width="8" height="8" shape-rendering="crispEdges" style="fill:#99fb83;opacity:255;"></rect><rect id="18-23" x="136" y="176" width="8" height="8" shape-rendering="crispEdges" style="fill:#99fb83;opacity:255;"></rect><rect id="19-23" x="144" y="176" width="8" height="8" shape-rendering="crispEdges" style="fill:#99fb83;opacity:255;"></rect><rect id="20-23" x="152" y="176" width="8" height="8" shape-rendering="crispEdges" style="fill:#99fb83;opacity:255;"></rect><rect id="21-23" x="160" y="176" width="8" height="8" shape-rendering="crispEdges" style="fill:#99fb83;opacity:255;"></rect><rect id="22-23" x="168" y="176" width="8" height="8" shape-rendering="crispEdges" style="fill:#638f59;opacity:255;"></rect><rect id="11-24" x="80" y="184" width="8" height="8" shape-rendering="crispEdges" style="fill:#638f59;opacity:255;"></rect><rect id="12-24" x="88" y="184" width="8" height="8" shape-rendering="crispEdges" style="fill:#99fb83;opacity:255;"></rect><rect id="13-24" x="96" y="184" width="8" height="8" shape-rendering="crispEdges" style="fill:#99fb83;opacity:255;"></rect><rect id="14-24" x="104" y="184" width="8" height="8" shape-rendering="crispEdges" style="fill:#99fb83;opacity:255;"></rect><rect id="15-24" x="112" y="184" width="8" height="8" shape-rendering="crispEdges" style="fill:#99fb83;opacity:255;"></rect><rect id="16-24" x="120" y="184" width="8" height="8" shape-rendering="crispEdges" style="fill:#99fb83;opacity:255;"></rect><rect id="17-24" x="128" y="184" width="8" height="8" shape-rendering="crispEdges" style="fill:#99fb83;opacity:255;"></rect><rect id="18-24" x="136" y="184" width="8" height="8" shape-rendering="crispEdges" style="fill:#99fb83;opacity:255;"></rect><rect id="19-24" x="144" y="184" width="8" height="8" shape-rendering="crispEdges" style="fill:#99fb83;opacity:255;"></rect><rect id="20-24" x="152" y="184" width="8" height="8" shape-rendering="crispEdges" style="fill:#638f59;opacity:255;"></rect><rect id="21-24" x="160" y="184" width="8" height="8" shape-rendering="crispEdges" style="fill:#638f59;opacity:255;"></rect><rect id="11-25" x="80" y="192" width="8" height="8" shape-rendering="crispEdges" style="fill:#638f59;opacity:255;"></rect><rect id="12-25" x="88" y="192" width="8" height="8" shape-rendering="crispEdges" style="fill:#99fb83;opacity:255;"></rect><rect id="13-25" x="96" y="192" width="8" height="8" shape-rendering="crispEdges" style="fill:#99fb83;opacity:255;"></rect><rect id="14-25" x="104" y="192" width="8" height="8" shape-rendering="crispEdges" style="fill:#99fb83;opacity:255;"></rect><rect id="15-25" x="112" y="192" width="8" height="8" shape-rendering="crispEdges" style="fill:#99fb83;opacity:255;"></rect><rect id="16-25" x="120" y="192" width="8" height="8" shape-rendering="crispEdges" style="fill:#99fb83;opacity:255;"></rect><rect id="17-25" x="128" y="192" width="8" height="8" shape-rendering="crispEdges" style="fill:#99fb83;opacity:255;"></rect><rect id="18-25" x="136" y="192" width="8" height="8" shape-rendering="crispEdges" style="fill:#638f59;opacity:255;"></rect><rect id="19-25" x="144" y="192" width="8" height="8" shape-rendering="crispEdges" style="fill:#638f59;opacity:255;"></rect><rect id="11-26" x="80" y="200" width="8" height="8" shape-rendering="crispEdges" style="fill:#638f59;opacity:255;"></rect><rect id="12-26" x="88" y="200" width="8" height="8" shape-rendering="crispEdges" style="fill:#99fb83;opacity:255;"></rect><rect id="13-26" x="96" y="200" width="8" height="8" shape-rendering="crispEdges" style="fill:#99fb83;opacity:255;"></rect><rect id="14-26" x="104" y="200" width="8" height="8" shape-rendering="crispEdges" style="fill:#99fb83;opacity:255;"></rect><rect id="15-26" x="112" y="200" width="8" height="8" shape-rendering="crispEdges" style="fill:#99fb83;opacity:255;"></rect><rect id="16-26" x="120" y="200" width="8" height="8" shape-rendering="crispEdges" style="fill:#638f59;opacity:255;"></rect><rect id="17-26" x="128" y="200" width="8" height="8" shape-rendering="crispEdges" style="fill:#638f59;opacity:255;"></rect><rect id="11-27" x="80" y="208" width="8" height="8" shape-rendering="crispEdges" style="fill:#638f59;opacity:255;"></rect><rect id="12-27" x="88" y="208" width="8" height="8" shape-rendering="crispEdges" style="fill:#99fb83;opacity:255;"></rect><rect id="13-27" x="96" y="208" width="8" height="8" shape-rendering="crispEdges" style="fill:#99fb83;opacity:255;"></rect><rect id="14-27" x="104" y="208" width="8" height="8" shape-rendering="crispEdges" style="fill:#638f59;opacity:255;"></rect><rect id="15-27" x="112" y="208" width="8" height="8" shape-rendering="crispEdges" style="fill:#638f59;opacity:255;"></rect><rect id="11-28" x="80" y="216" width="8" height="8" shape-rendering="crispEdges" style="fill:#638f59;opacity:255;"></rect><rect id="12-28" x="88" y="216" width="8" height="8" shape-rendering="crispEdges" style="fill:#638f59;opacity:255;"></rect><rect id="13-28" x="96" y="216" width="8" height="8" shape-rendering="crispEdges" style="fill:#638f59;opacity:255;"></rect><rect id="11-29" x="80" y="224" width="8" height="8" shape-rendering="crispEdges" style="fill:#638f59;opacity:255;"></rect><rect id="12-29" x="88" y="224" width="8" height="8" shape-rendering="crispEdges" style="fill:#638f59;opacity:255;"></rect></svg>